<?xml version="1.0" encoding="utf-8" standalone="no"?>
<!DOCTYPE svg PUBLIC "-//W3C//DTD SVG 1.1//EN"
  "http://www.w3.org/Graphics/SVG/1.1/DTD/svg11.dtd">
<!-- Created with matplotlib (https://matplotlib.org/) -->
<svg height="175.838173pt" version="1.1" viewBox="0 0 222.009393 175.838173" width="222.009393pt" xmlns="http://www.w3.org/2000/svg" xmlns:xlink="http://www.w3.org/1999/xlink">
 <defs>
  <style type="text/css">
*{stroke-linecap:butt;stroke-linejoin:round;}
  </style>
 </defs>
 <g id="figure_1">
  <g id="patch_1">
   <path d="M 0 175.838173 
L 222.009393 175.838173 
L 222.009393 0 
L 0 0 
z
" style="fill:#ffffff;"/>
  </g>
  <g id="axes_1">
   <g id="patch_2">
    <path d="M 39.061362 138.16063 
L 214.809393 138.16063 
L 214.809393 7.2 
L 39.061362 7.2 
z
" style="fill:#ffffff;"/>
   </g>
   <g id="matplotlib.axis_1">
    <g id="xtick_1">
     <g id="line2d_1">
      <defs>
       <path d="M 0 0 
L 0 6 
" id="m5a10d44c72" style="stroke:#262626;stroke-width:0.5;"/>
      </defs>
      <g>
       <use style="fill:#262626;stroke:#262626;stroke-width:0.5;" x="47.049909" xlink:href="#m5a10d44c72" y="138.16063"/>
      </g>
     </g>
     <g id="text_1">
      <!-- $0$ -->
      <defs>
       <path d="M 42 31.84375 
C 42 37.96875 41.90625 48.421875 37.703125 56.453125 
C 34 63.484375 28.09375 66 22.90625 66 
C 18.09375 66 12 63.78125 8.203125 56.5625 
C 4.203125 49.015625 3.796875 39.671875 3.796875 31.84375 
C 3.796875 26.109375 3.90625 17.375 7 9.734375 
C 11.296875 -0.609375 19 -2 22.90625 -2 
C 27.5 -2 34.5 -0.109375 38.59375 9.4375 
C 41.59375 16.375 42 24.5 42 31.84375 
z
M 22.90625 -0.40625 
C 16.5 -0.40625 12.703125 5.125 11.296875 12.75 
C 10.203125 18.6875 10.203125 27.328125 10.203125 32.953125 
C 10.203125 40.6875 10.203125 47.109375 11.5 53.234375 
C 13.40625 61.78125 19 64.390625 22.90625 64.390625 
C 27 64.390625 32.296875 61.671875 34.203125 53.4375 
C 35.5 47.71875 35.59375 40.984375 35.59375 32.953125 
C 35.59375 26.421875 35.59375 18.375 34.40625 12.453125 
C 32.296875 1.5 26.40625 -0.40625 22.90625 -0.40625 
z
" id="CMR17-48"/>
      </defs>
      <g style="fill:#262626;" transform="translate(44.932817 155.295432)scale(0.08 -0.08)">
       <use transform="scale(0.996264)" xlink:href="#CMR17-48"/>
      </g>
     </g>
    </g>
    <g id="xtick_2">
     <g id="line2d_2">
      <g>
       <use style="fill:#262626;stroke:#262626;stroke-width:0.5;" x="79.004096" xlink:href="#m5a10d44c72" y="138.16063"/>
      </g>
     </g>
     <g id="text_2">
      <!-- $5$ -->
      <defs>
       <path d="M 11.40625 58.59375 
C 12.40625 58.1875 16.5 56.890625 20.703125 56.890625 
C 30 56.890625 35.09375 61.890625 38 64.6875 
C 38 65.484375 38 66 37.40625 66 
C 37.296875 66 37.09375 66 36.296875 65.59375 
C 32.796875 64.09375 28.703125 63 23.703125 63 
C 20.703125 63 16.203125 63.359375 11.296875 65.484375 
C 10.203125 66 10 66 9.90625 66 
C 9.40625 66 9.296875 65.890625 9.296875 63.90625 
L 9.296875 34.859375 
C 9.296875 33.015625 9.296875 32.5 10.296875 32.5 
C 10.796875 32.5 11 32.703125 11.5 33.421875 
C 14.703125 38.046875 19.09375 40 24.09375 40 
C 27.59375 40 35.09375 37.734375 35.09375 20.203125 
C 35.09375 16.984375 35.09375 11.1875 32.09375 6.59375 
C 29.59375 2.484375 25.703125 0.390625 21.40625 0.390625 
C 14.796875 0.390625 8.09375 4.984375 6.296875 12.6875 
C 6.703125 12.59375 7.5 12.390625 7.90625 12.390625 
C 9.203125 12.390625 11.703125 13.09375 11.703125 16.1875 
C 11.703125 18.890625 9.796875 20 7.90625 20 
C 5.59375 20 4.09375 18.59375 4.09375 15.796875 
C 4.09375 7.09375 11 -2 21.59375 -2 
C 31.90625 -2 41.703125 6.890625 41.703125 19.796875 
C 41.703125 32.09375 33.90625 41.59375 24.203125 41.59375 
C 19.09375 41.59375 14.796875 39.6875 11.40625 36 
z
" id="CMR17-53"/>
      </defs>
      <g style="fill:#262626;" transform="translate(76.887005 155.295432)scale(0.08 -0.08)">
       <use transform="scale(0.996264)" xlink:href="#CMR17-53"/>
      </g>
     </g>
    </g>
    <g id="xtick_3">
     <g id="line2d_3">
      <g>
       <use style="fill:#262626;stroke:#262626;stroke-width:0.5;" x="110.958284" xlink:href="#m5a10d44c72" y="138.16063"/>
      </g>
     </g>
     <g id="text_3">
      <!-- $10$ -->
      <defs>
       <path d="M 26.59375 63.796875 
C 26.59375 65.890625 26.5 66 25.09375 66 
C 21.203125 61.359375 15.296875 59.890625 9.703125 59.6875 
C 9.40625 59.6875 8.90625 59.6875 8.796875 59.5 
C 8.703125 59.296875 8.703125 59.09375 8.703125 57 
C 11.796875 57 17 57.59375 21 59.984375 
L 21 7.296875 
C 21 3.796875 20.796875 2.59375 12.203125 2.59375 
L 9.203125 2.59375 
L 9.203125 0 
C 14 0.09375 19 0.1875 23.796875 0.1875 
C 28.59375 0.1875 33.59375 0.09375 38.40625 0 
L 38.40625 2.59375 
L 35.40625 2.59375 
C 26.796875 2.59375 26.59375 3.6875 26.59375 7.296875 
z
" id="CMR17-49"/>
      </defs>
      <g style="fill:#262626;" transform="translate(106.724101 155.295432)scale(0.08 -0.08)">
       <use transform="scale(0.996264)" xlink:href="#CMR17-49"/>
       <use transform="translate(45.690477 0)scale(0.996264)" xlink:href="#CMR17-48"/>
      </g>
     </g>
    </g>
    <g id="xtick_4">
     <g id="line2d_4">
      <g>
       <use style="fill:#262626;stroke:#262626;stroke-width:0.5;" x="142.912471" xlink:href="#m5a10d44c72" y="138.16063"/>
      </g>
     </g>
     <g id="text_4">
      <!-- $15$ -->
      <g style="fill:#262626;" transform="translate(138.678288 155.295432)scale(0.08 -0.08)">
       <use transform="scale(0.996264)" xlink:href="#CMR17-49"/>
       <use transform="translate(45.690477 0)scale(0.996264)" xlink:href="#CMR17-53"/>
      </g>
     </g>
    </g>
    <g id="xtick_5">
     <g id="line2d_5">
      <g>
       <use style="fill:#262626;stroke:#262626;stroke-width:0.5;" x="174.866659" xlink:href="#m5a10d44c72" y="138.16063"/>
      </g>
     </g>
     <g id="text_5">
      <!-- $20$ -->
      <defs>
       <path d="M 41.703125 15.46875 
L 39.90625 15.46875 
C 38.90625 8.390625 38.09375 7.1875 37.703125 6.59375 
C 37.203125 5.796875 30 5.796875 28.59375 5.796875 
L 9.40625 5.796875 
C 13 9.6875 20 16.765625 28.5 24.9375 
C 34.59375 30.71875 41.703125 37.5 41.703125 47.390625 
C 41.703125 59.1875 32.296875 66 21.796875 66 
C 10.796875 66 4.09375 56.296875 4.09375 47.296875 
C 4.09375 43.390625 7 42.890625 8.203125 42.890625 
C 9.203125 42.890625 12.203125 43.484375 12.203125 46.984375 
C 12.203125 50.09375 9.59375 51 8.203125 51 
C 7.59375 51 7 50.890625 6.59375 50.6875 
C 8.5 59.1875 14.296875 63.390625 20.40625 63.390625 
C 29.09375 63.390625 34.796875 56.5 34.796875 47.390625 
C 34.796875 38.703125 29.703125 31.21875 24 24.734375 
L 4.09375 2.296875 
L 4.09375 0 
L 39.296875 0 
z
" id="CMR17-50"/>
      </defs>
      <g style="fill:#262626;" transform="translate(170.632476 155.295432)scale(0.08 -0.08)">
       <use transform="scale(0.996264)" xlink:href="#CMR17-50"/>
       <use transform="translate(45.690477 0)scale(0.996264)" xlink:href="#CMR17-48"/>
      </g>
     </g>
    </g>
    <g id="xtick_6">
     <g id="line2d_6">
      <g>
       <use style="fill:#262626;stroke:#262626;stroke-width:0.5;" x="206.820846" xlink:href="#m5a10d44c72" y="138.16063"/>
      </g>
     </g>
     <g id="text_6">
      <!-- $25$ -->
      <g style="fill:#262626;" transform="translate(202.586664 155.295432)scale(0.08 -0.08)">
       <use transform="scale(0.996264)" xlink:href="#CMR17-50"/>
       <use transform="translate(45.690477 0)scale(0.996264)" xlink:href="#CMR17-53"/>
      </g>
     </g>
    </g>
    <g id="text_7">
     <!-- layer -->
     <defs>
      <path d="M 15.296875 69 
L 3.40625 67.890625 
L 3.40625 65.296875 
C 9.296875 65.296875 10.203125 64.703125 10.203125 59.921875 
L 10.203125 6.859375 
C 10.203125 3.09375 9.796875 2.59375 3.40625 2.59375 
L 3.40625 0 
C 5.796875 0.1875 10.203125 0.1875 12.703125 0.1875 
C 15.296875 0.1875 19.703125 0.1875 22.09375 0 
L 22.09375 2.59375 
C 15.703125 2.59375 15.296875 2.984375 15.296875 6.859375 
z
" id="CMR17-108"/>
      <path d="M 36 25.875 
C 36 32 36 35.546875 31.796875 39.59375 
C 28.09375 42.984375 23.796875 44 20.40625 44 
C 12.5 44 6.796875 37.625 6.796875 30.890625 
C 6.796875 27.1875 9.796875 27 10.40625 27 
C 11.703125 27 14 27.796875 14 30.59375 
C 14 33.09375 12.09375 34.1875 10.40625 34.1875 
C 10 34.1875 9.5 34.09375 9.203125 34 
C 11.296875 40.53125 16.703125 42.390625 20.203125 42.390625 
C 25.203125 42.390625 30.703125 37.828125 30.703125 29.296875 
L 30.703125 25.5 
C 24.796875 25.296875 17.703125 24.5 12.09375 21.453125 
C 5.796875 17.921875 4 12.84375 4 9 
C 4 1.203125 13 -1 18.296875 -1 
C 23.796875 -1 28.90625 2.109375 31.09375 7.890625 
C 31.296875 3.421875 34.09375 -0.609375 38.5 -0.609375 
C 40.59375 -0.609375 45.90625 0.796875 45.90625 8.796875 
L 45.90625 14.46875 
L 44.09375 14.46875 
L 44.09375 8.703125 
C 44.09375 2.515625 41.40625 1.703125 40.09375 1.703125 
C 36 1.703125 36 6.96875 36 11.4375 
z
M 30.703125 13.859375 
C 30.703125 5.046875 24.5 0.59375 19 0.59375 
C 14 0.59375 10.09375 4.34375 10.09375 9 
C 10.09375 12.046875 11.40625 17.40625 17.203125 20.65625 
C 22 23.390625 27.5 23.796875 30.703125 24 
z
" id="CMR17-97"/>
      <path d="M 39 34.109375 
C 41.5 40.296875 46 40.390625 47.40625 40.390625 
L 47.40625 43 
C 45.5 42.890625 43 42.796875 41.09375 42.796875 
C 39 42.796875 35.703125 42.796875 33.703125 43 
L 33.703125 40.390625 
C 37.5 40.09375 37.59375 37.25 37.59375 36.4375 
C 37.59375 35.4375 37.40625 34.921875 36.90625 33.71875 
L 26 6.390625 
L 14.09375 35.9375 
C 13.59375 37.15625 13.59375 37.859375 13.59375 37.96875 
C 13.59375 40.1875 15.90625 40.390625 18.296875 40.390625 
L 18.296875 43 
C 15.90625 42.796875 11.59375 42.796875 9.09375 42.796875 
C 6.40625 42.796875 3.203125 42.796875 1 43 
L 1 40.390625 
C 6.40625 40.390625 7 39.890625 8.296875 36.640625 
L 23.203125 -0.484375 
C 18.703125 -12.421875 16.09375 -19.40625 9.796875 -19.40625 
C 8.703125 -19.40625 6.203125 -19.109375 4.40625 -17.28125 
C 6.703125 -17.078125 7.703125 -15.65625 7.703125 -13.9375 
C 7.703125 -12.21875 6.5 -10.703125 4.5 -10.703125 
C 2.296875 -10.703125 1.203125 -12.21875 1.203125 -14.046875 
C 1.203125 -18.09375 5.296875 -21 9.796875 -21 
C 15.59375 -21 19.203125 -15.359375 21.203125 -10.296875 
z
" id="CMR17-121"/>
      <path d="M 38.09375 23.484375 
C 38.5 23.890625 38.5 24.09375 38.5 25.09375 
C 38.5 35.171875 33.09375 44 21.703125 44 
C 11.09375 44 2.703125 33.984375 2.703125 21.78125 
C 2.703125 8.65625 12.203125 -1 22.796875 -1 
C 34 -1 38.40625 9.671875 38.40625 11.796875 
C 38.40625 12.5 37.796875 12.5 37.59375 12.5 
C 36.90625 12.5 36.796875 12.296875 36.40625 11.078125 
C 34.203125 4.21875 28.703125 0.796875 23.5 0.796875 
C 19.203125 0.796875 14.90625 3.21875 12.203125 7.65625 
C 9.09375 12.796875 9.09375 18.75 9.09375 23.484375 
z
M 9.203125 25 
C 9.90625 39.234375 17.59375 42.390625 21.59375 42.390625 
C 28.40625 42.390625 33 36.0625 33.09375 25 
z
" id="CMR17-101"/>
      <path d="M 15 23.703125 
C 15 33.34375 19.09375 42.390625 26.59375 42.390625 
C 27.296875 42.390625 28 42.296875 28.703125 41.984375 
C 28.703125 41.984375 26.5 41.28125 26.5 38.671875 
C 26.5 36.265625 28.40625 35.265625 29.90625 35.265625 
C 31.09375 35.265625 33.296875 35.96875 33.296875 38.78125 
C 33.296875 41.984375 30.09375 44 26.703125 44 
C 19.09375 44 15.796875 36.5625 14.796875 33.046875 
L 14.703125 33.046875 
L 14.703125 44 
L 3.09375 42.890625 
L 3.09375 40.28125 
C 9 40.28125 9.90625 39.6875 9.90625 34.859375 
L 9.90625 6.921875 
C 9.90625 3.09375 9.5 2.59375 3.09375 2.59375 
L 3.09375 0 
C 5.5 0.1875 10.09375 0.1875 12.703125 0.1875 
C 15.59375 0.1875 20.703125 0.1875 23.40625 0 
L 23.40625 2.59375 
C 16.203125 2.59375 15 2.59375 15 7.109375 
z
" id="CMR17-114"/>
     </defs>
     <g style="fill:#262626;" transform="translate(117.228257 166.933461)scale(0.088 -0.088)">
      <use transform="scale(0.996264)" xlink:href="#CMR17-108"/>
      <use transform="translate(24.871058 0)scale(0.996264)" xlink:href="#CMR17-97"/>
      <use transform="translate(67.959082 0)scale(0.996264)" xlink:href="#CMR17-121"/>
      <use transform="translate(113.649544 0)scale(0.996264)" xlink:href="#CMR17-101"/>
      <use transform="translate(154.135204 0)scale(0.996264)" xlink:href="#CMR17-114"/>
     </g>
    </g>
   </g>
   <g id="matplotlib.axis_2">
    <g id="ytick_1">
     <g id="line2d_7">
      <defs>
       <path d="M 0 0 
L -6 0 
" id="m15c5d865bc" style="stroke:#262626;stroke-width:0.5;"/>
      </defs>
      <g>
       <use style="fill:#262626;stroke:#262626;stroke-width:0.5;" x="39.061362" xlink:href="#m15c5d865bc" y="134.511188"/>
      </g>
     </g>
     <g id="text_8">
      <!-- $0$ -->
      <g style="fill:#262626;" transform="translate(23.227179 137.278589)scale(0.08 -0.08)">
       <use transform="scale(0.996264)" xlink:href="#CMR17-48"/>
      </g>
     </g>
    </g>
    <g id="ytick_2">
     <g id="line2d_8">
      <g>
       <use style="fill:#262626;stroke:#262626;stroke-width:0.5;" x="39.061362" xlink:href="#m15c5d865bc" y="109.621408"/>
      </g>
     </g>
     <g id="text_9">
      <!-- $5$ -->
      <g style="fill:#262626;" transform="translate(23.227179 112.388809)scale(0.08 -0.08)">
       <use transform="scale(0.996264)" xlink:href="#CMR17-53"/>
      </g>
     </g>
    </g>
    <g id="ytick_3">
     <g id="line2d_9">
      <g>
       <use style="fill:#262626;stroke:#262626;stroke-width:0.5;" x="39.061362" xlink:href="#m15c5d865bc" y="84.731628"/>
      </g>
     </g>
     <g id="text_10">
      <!-- $10$ -->
      <g style="fill:#262626;" transform="translate(18.992996 87.499029)scale(0.08 -0.08)">
       <use transform="scale(0.996264)" xlink:href="#CMR17-49"/>
       <use transform="translate(45.690477 0)scale(0.996264)" xlink:href="#CMR17-48"/>
      </g>
     </g>
    </g>
    <g id="ytick_4">
     <g id="line2d_10">
      <g>
       <use style="fill:#262626;stroke:#262626;stroke-width:0.5;" x="39.061362" xlink:href="#m15c5d865bc" y="59.841849"/>
      </g>
     </g>
     <g id="text_11">
      <!-- $15$ -->
      <g style="fill:#262626;" transform="translate(18.992996 62.609249)scale(0.08 -0.08)">
       <use transform="scale(0.996264)" xlink:href="#CMR17-49"/>
       <use transform="translate(45.690477 0)scale(0.996264)" xlink:href="#CMR17-53"/>
      </g>
     </g>
    </g>
    <g id="ytick_5">
     <g id="line2d_11">
      <g>
       <use style="fill:#262626;stroke:#262626;stroke-width:0.5;" x="39.061362" xlink:href="#m15c5d865bc" y="34.952069"/>
      </g>
     </g>
     <g id="text_12">
      <!-- $20$ -->
      <g style="fill:#262626;" transform="translate(18.992996 37.71947)scale(0.08 -0.08)">
       <use transform="scale(0.996264)" xlink:href="#CMR17-50"/>
       <use transform="translate(45.690477 0)scale(0.996264)" xlink:href="#CMR17-48"/>
      </g>
     </g>
    </g>
    <g id="ytick_6">
     <g id="line2d_12">
      <g>
       <use style="fill:#262626;stroke:#262626;stroke-width:0.5;" x="39.061362" xlink:href="#m15c5d865bc" y="10.062289"/>
      </g>
     </g>
     <g id="text_13">
      <!-- $25$ -->
      <g style="fill:#262626;" transform="translate(18.992996 12.82969)scale(0.08 -0.08)">
       <use transform="scale(0.996264)" xlink:href="#CMR17-50"/>
       <use transform="translate(45.690477 0)scale(0.996264)" xlink:href="#CMR17-53"/>
      </g>
     </g>
    </g>
    <g id="text_14">
     <!-- norm -->
     <defs>
      <path d="M 41.5 30.53125 
C 41.5 35.65625 40.5 44 28.703125 44 
C 20.796875 44 16.703125 37.875 15.203125 33.84375 
L 15.09375 33.84375 
L 15.09375 44 
L 3.296875 42.890625 
L 3.296875 40.28125 
C 9.203125 40.28125 10.09375 39.6875 10.09375 34.859375 
L 10.09375 6.921875 
C 10.09375 3.09375 9.703125 2.59375 3.296875 2.59375 
L 3.296875 0 
C 5.703125 0.1875 10.09375 0.1875 12.703125 0.1875 
C 15.296875 0.1875 19.796875 0.1875 22.203125 0 
L 22.203125 2.59375 
C 15.796875 2.59375 15.40625 3 15.40625 6.921875 
L 15.40625 26.21875 
C 15.40625 35.453125 21 42.390625 28 42.390625 
C 35.40625 42.390625 36.203125 35.765625 36.203125 30.9375 
L 36.203125 6.921875 
C 36.203125 3.09375 35.796875 2.59375 29.40625 2.59375 
L 29.40625 0 
C 31.796875 0.1875 36.203125 0.1875 38.796875 0.1875 
C 41.40625 0.1875 45.90625 0.1875 48.296875 0 
L 48.296875 2.59375 
C 41.90625 2.59375 41.5 3 41.5 6.921875 
z
" id="CMR17-110"/>
      <path d="M 43.09375 21.1875 
C 43.09375 34 33.796875 44 22.90625 44 
C 12 44 2.703125 34 2.703125 21.1875 
C 2.703125 8.59375 12 -1 22.90625 -1 
C 33.796875 -1 43.09375 8.59375 43.09375 21.1875 
z
M 22.90625 0.796875 
C 18.203125 0.796875 14.203125 3.59375 11.90625 7.5 
C 9.40625 12 9.09375 17.59375 9.09375 22 
C 9.09375 26.1875 9.296875 31.390625 11.90625 35.890625 
C 13.90625 39.1875 17.796875 42.390625 22.90625 42.390625 
C 27.40625 42.390625 31.203125 39.890625 33.59375 36.390625 
C 36.703125 31.6875 36.703125 25.09375 36.703125 22 
C 36.703125 18.09375 36.5 12.09375 33.796875 7.296875 
C 31 2.6875 26.703125 0.796875 22.90625 0.796875 
z
" id="CMR17-111"/>
      <path d="M 67.59375 30.53125 
C 67.59375 35.5625 66.703125 44 54.796875 44 
C 48 44 43.296875 39.375 41.5 33.953125 
L 41.40625 33.953125 
C 40.203125 42.1875 34.296875 44 28.703125 44 
C 20.796875 44 16.703125 37.875 15.203125 33.84375 
L 15.09375 33.84375 
L 15.09375 44 
L 3.296875 42.890625 
L 3.296875 40.28125 
C 9.203125 40.28125 10.09375 39.6875 10.09375 34.859375 
L 10.09375 6.921875 
C 10.09375 3.09375 9.703125 2.59375 3.296875 2.59375 
L 3.296875 0 
C 5.703125 0.1875 10.09375 0.1875 12.703125 0.1875 
C 15.296875 0.1875 19.796875 0.1875 22.203125 0 
L 22.203125 2.59375 
C 15.796875 2.59375 15.40625 3 15.40625 6.921875 
L 15.40625 26.21875 
C 15.40625 35.453125 21 42.390625 28 42.390625 
C 35.40625 42.390625 36.203125 35.765625 36.203125 30.9375 
L 36.203125 6.921875 
C 36.203125 3.09375 35.796875 2.59375 29.40625 2.59375 
L 29.40625 0 
C 31.796875 0.1875 36.203125 0.1875 38.796875 0.1875 
C 41.40625 0.1875 45.90625 0.1875 48.296875 0 
L 48.296875 2.59375 
C 41.90625 2.59375 41.5 3 41.5 6.921875 
L 41.5 26.21875 
C 41.5 35.453125 47.09375 42.390625 54.09375 42.390625 
C 61.5 42.390625 62.296875 35.765625 62.296875 30.9375 
L 62.296875 6.921875 
C 62.296875 3.09375 61.90625 2.59375 55.5 2.59375 
L 55.5 0 
C 57.90625 0.1875 62.296875 0.1875 64.90625 0.1875 
C 67.5 0.1875 72 0.1875 74.40625 0 
L 74.40625 2.59375 
C 68 2.59375 67.59375 3 67.59375 6.921875 
z
" id="CMR17-109"/>
     </defs>
     <g style="fill:#262626;" transform="translate(13.288283 83.293097)rotate(-90)scale(0.088 -0.088)">
      <use transform="scale(0.996264)" xlink:href="#CMR17-110"/>
      <use transform="translate(50.89537 0)scale(0.996264)" xlink:href="#CMR17-111"/>
      <use transform="translate(96.585847 0)scale(0.996264)" xlink:href="#CMR17-114"/>
      <use transform="translate(131.866615 0)scale(0.996264)" xlink:href="#CMR17-109"/>
     </g>
    </g>
   </g>
   <g id="line2d_13">
    <path clip-path="url(#pbddcede315)" d="M 47.049909 123.034363 
L 53.440746 98.179194 
L 59.831584 98.149649 
L 66.222421 98.151973 
L 72.613259 98.168914 
L 79.004096 98.180006 
L 85.394934 98.142651 
L 91.785771 98.172792 
L 98.176609 98.148915 
L 104.567446 83.038187 
L 110.958284 83.105628 
L 117.349121 83.085476 
L 123.739959 83.058867 
L 130.130796 83.09621 
L 136.521634 83.092155 
L 142.912471 83.100777 
L 149.303309 83.078611 
L 155.694146 61.811661 
L 162.084984 61.792539 
L 168.475821 61.814381 
L 174.866659 61.797889 
L 181.257496 61.819751 
L 187.648334 61.795544 
L 194.039171 61.800272 
L 200.430009 61.78566 
L 206.820846 125.297931 
" style="fill:none;stroke:#2a768e;stroke-linecap:round;stroke-width:1.4;"/>
    <defs>
     <path d="M 0 1.4 
C 0.371284 1.4 0.727412 1.252487 0.989949 0.989949 
C 1.252487 0.727412 1.4 0.371284 1.4 0 
C 1.4 -0.371284 1.252487 -0.727412 0.989949 -0.989949 
C 0.727412 -1.252487 0.371284 -1.4 0 -1.4 
C -0.371284 -1.4 -0.727412 -1.252487 -0.989949 -0.989949 
C -1.252487 -0.727412 -1.4 -0.371284 -1.4 0 
C -1.4 0.371284 -1.252487 0.727412 -0.989949 0.989949 
C -0.727412 1.252487 -0.371284 1.4 0 1.4 
z
" id="mb55518ee16"/>
    </defs>
    <g clip-path="url(#pbddcede315)">
     <use style="fill:#2a768e;" x="47.049909" xlink:href="#mb55518ee16" y="123.034363"/>
     <use style="fill:#2a768e;" x="53.440746" xlink:href="#mb55518ee16" y="98.179194"/>
     <use style="fill:#2a768e;" x="59.831584" xlink:href="#mb55518ee16" y="98.149649"/>
     <use style="fill:#2a768e;" x="66.222421" xlink:href="#mb55518ee16" y="98.151973"/>
     <use style="fill:#2a768e;" x="72.613259" xlink:href="#mb55518ee16" y="98.168914"/>
     <use style="fill:#2a768e;" x="79.004096" xlink:href="#mb55518ee16" y="98.180006"/>
     <use style="fill:#2a768e;" x="85.394934" xlink:href="#mb55518ee16" y="98.142651"/>
     <use style="fill:#2a768e;" x="91.785771" xlink:href="#mb55518ee16" y="98.172792"/>
     <use style="fill:#2a768e;" x="98.176609" xlink:href="#mb55518ee16" y="98.148915"/>
     <use style="fill:#2a768e;" x="104.567446" xlink:href="#mb55518ee16" y="83.038187"/>
     <use style="fill:#2a768e;" x="110.958284" xlink:href="#mb55518ee16" y="83.105628"/>
     <use style="fill:#2a768e;" x="117.349121" xlink:href="#mb55518ee16" y="83.085476"/>
     <use style="fill:#2a768e;" x="123.739959" xlink:href="#mb55518ee16" y="83.058867"/>
     <use style="fill:#2a768e;" x="130.130796" xlink:href="#mb55518ee16" y="83.09621"/>
     <use style="fill:#2a768e;" x="136.521634" xlink:href="#mb55518ee16" y="83.092155"/>
     <use style="fill:#2a768e;" x="142.912471" xlink:href="#mb55518ee16" y="83.100777"/>
     <use style="fill:#2a768e;" x="149.303309" xlink:href="#mb55518ee16" y="83.078611"/>
     <use style="fill:#2a768e;" x="155.694146" xlink:href="#mb55518ee16" y="61.811661"/>
     <use style="fill:#2a768e;" x="162.084984" xlink:href="#mb55518ee16" y="61.792539"/>
     <use style="fill:#2a768e;" x="168.475821" xlink:href="#mb55518ee16" y="61.814381"/>
     <use style="fill:#2a768e;" x="174.866659" xlink:href="#mb55518ee16" y="61.797889"/>
     <use style="fill:#2a768e;" x="181.257496" xlink:href="#mb55518ee16" y="61.819751"/>
     <use style="fill:#2a768e;" x="187.648334" xlink:href="#mb55518ee16" y="61.795544"/>
     <use style="fill:#2a768e;" x="194.039171" xlink:href="#mb55518ee16" y="61.800272"/>
     <use style="fill:#2a768e;" x="200.430009" xlink:href="#mb55518ee16" y="61.78566"/>
     <use style="fill:#2a768e;" x="206.820846" xlink:href="#mb55518ee16" y="125.297931"/>
    </g>
   </g>
   <g id="line2d_14">
    <path clip-path="url(#pbddcede315)" d="M 47.049909 131.641982 
L 53.440746 125.42819 
L 59.831584 125.420803 
L 66.222421 125.421384 
L 72.613259 125.42562 
L 79.004096 125.428393 
L 85.394934 125.419054 
L 91.785771 125.426589 
L 98.176609 125.42062 
L 104.567446 121.642937 
L 110.958284 121.659797 
L 117.349121 121.65476 
L 123.739959 121.648108 
L 130.130796 121.657444 
L 136.521634 121.656431 
L 142.912471 121.658585 
L 149.303309 121.653043 
L 155.694146 116.336305 
L 162.084984 116.331525 
L 168.475821 116.336988 
L 174.866659 116.332863 
L 181.257496 116.338329 
L 187.648334 116.332276 
L 194.039171 116.333458 
L 200.430009 116.329806 
L 206.820846 132.207874 
" style="fill:none;stroke:#33a02c;stroke-linecap:round;stroke-width:1.4;"/>
    <defs>
     <path d="M 0 1.4 
C 0.371284 1.4 0.727412 1.252487 0.989949 0.989949 
C 1.252487 0.727412 1.4 0.371284 1.4 0 
C 1.4 -0.371284 1.252487 -0.727412 0.989949 -0.989949 
C 0.727412 -1.252487 0.371284 -1.4 0 -1.4 
C -0.371284 -1.4 -0.727412 -1.252487 -0.989949 -0.989949 
C -1.252487 -0.727412 -1.4 -0.371284 -1.4 0 
C -1.4 0.371284 -1.252487 0.727412 -0.989949 0.989949 
C -0.727412 1.252487 -0.371284 1.4 0 1.4 
z
" id="me614a0153e"/>
    </defs>
    <g clip-path="url(#pbddcede315)">
     <use style="fill:#33a02c;" x="47.049909" xlink:href="#me614a0153e" y="131.641982"/>
     <use style="fill:#33a02c;" x="53.440746" xlink:href="#me614a0153e" y="125.42819"/>
     <use style="fill:#33a02c;" x="59.831584" xlink:href="#me614a0153e" y="125.420803"/>
     <use style="fill:#33a02c;" x="66.222421" xlink:href="#me614a0153e" y="125.421384"/>
     <use style="fill:#33a02c;" x="72.613259" xlink:href="#me614a0153e" y="125.42562"/>
     <use style="fill:#33a02c;" x="79.004096" xlink:href="#me614a0153e" y="125.428393"/>
     <use style="fill:#33a02c;" x="85.394934" xlink:href="#me614a0153e" y="125.419054"/>
     <use style="fill:#33a02c;" x="91.785771" xlink:href="#me614a0153e" y="125.426589"/>
     <use style="fill:#33a02c;" x="98.176609" xlink:href="#me614a0153e" y="125.42062"/>
     <use style="fill:#33a02c;" x="104.567446" xlink:href="#me614a0153e" y="121.642937"/>
     <use style="fill:#33a02c;" x="110.958284" xlink:href="#me614a0153e" y="121.659797"/>
     <use style="fill:#33a02c;" x="117.349121" xlink:href="#me614a0153e" y="121.65476"/>
     <use style="fill:#33a02c;" x="123.739959" xlink:href="#me614a0153e" y="121.648108"/>
     <use style="fill:#33a02c;" x="130.130796" xlink:href="#me614a0153e" y="121.657444"/>
     <use style="fill:#33a02c;" x="136.521634" xlink:href="#me614a0153e" y="121.656431"/>
     <use style="fill:#33a02c;" x="142.912471" xlink:href="#me614a0153e" y="121.658585"/>
     <use style="fill:#33a02c;" x="149.303309" xlink:href="#me614a0153e" y="121.653043"/>
     <use style="fill:#33a02c;" x="155.694146" xlink:href="#me614a0153e" y="116.336305"/>
     <use style="fill:#33a02c;" x="162.084984" xlink:href="#me614a0153e" y="116.331525"/>
     <use style="fill:#33a02c;" x="168.475821" xlink:href="#me614a0153e" y="116.336988"/>
     <use style="fill:#33a02c;" x="174.866659" xlink:href="#me614a0153e" y="116.332863"/>
     <use style="fill:#33a02c;" x="181.257496" xlink:href="#me614a0153e" y="116.338329"/>
     <use style="fill:#33a02c;" x="187.648334" xlink:href="#me614a0153e" y="116.332276"/>
     <use style="fill:#33a02c;" x="194.039171" xlink:href="#me614a0153e" y="116.333458"/>
     <use style="fill:#33a02c;" x="200.430009" xlink:href="#me614a0153e" y="116.329806"/>
     <use style="fill:#33a02c;" x="206.820846" xlink:href="#me614a0153e" y="132.207874"/>
    </g>
   </g>
   <g id="line2d_15">
    <path clip-path="url(#pbddcede315)" d="M 47.049909 30.449588 
L 53.440746 24.235973 
L 59.831584 23.232982 
L 66.222421 51.932557 
L 72.613259 31.203059 
L 79.004096 57.091211 
L 85.394934 22.236257 
L 91.785771 59.080611 
L 98.176609 31.197998 
L 104.567446 60.274921 
L 110.958284 68.272964 
L 117.349121 83.201824 
L 123.739959 45.346303 
L 130.130796 40.377652 
L 136.521634 73.319681 
L 142.912471 55.415126 
L 149.303309 54.425162 
L 155.694146 13.152756 
L 162.084984 18.027846 
L 168.475821 18.033353 
L 174.866659 16.037957 
L 181.257496 16.043398 
L 187.648334 16.038005 
L 194.039171 21.033421 
L 200.430009 15.056519 
L 206.820846 127.490506 
" style="fill:none;stroke:#ad494a;stroke-linecap:round;stroke-width:1.4;"/>
    <defs>
     <path d="M 0 1.4 
C 0.371284 1.4 0.727412 1.252487 0.989949 0.989949 
C 1.252487 0.727412 1.4 0.371284 1.4 0 
C 1.4 -0.371284 1.252487 -0.727412 0.989949 -0.989949 
C 0.727412 -1.252487 0.371284 -1.4 0 -1.4 
C -0.371284 -1.4 -0.727412 -1.252487 -0.989949 -0.989949 
C -1.252487 -0.727412 -1.4 -0.371284 -1.4 0 
C -1.4 0.371284 -1.252487 0.727412 -0.989949 0.989949 
C -0.727412 1.252487 -0.371284 1.4 0 1.4 
z
" id="m00ca19e3de"/>
    </defs>
    <g clip-path="url(#pbddcede315)">
     <use style="fill:#ad494a;" x="47.049909" xlink:href="#m00ca19e3de" y="30.449588"/>
     <use style="fill:#ad494a;" x="53.440746" xlink:href="#m00ca19e3de" y="24.235973"/>
     <use style="fill:#ad494a;" x="59.831584" xlink:href="#m00ca19e3de" y="23.232982"/>
     <use style="fill:#ad494a;" x="66.222421" xlink:href="#m00ca19e3de" y="51.932557"/>
     <use style="fill:#ad494a;" x="72.613259" xlink:href="#m00ca19e3de" y="31.203059"/>
     <use style="fill:#ad494a;" x="79.004096" xlink:href="#m00ca19e3de" y="57.091211"/>
     <use style="fill:#ad494a;" x="85.394934" xlink:href="#m00ca19e3de" y="22.236257"/>
     <use style="fill:#ad494a;" x="91.785771" xlink:href="#m00ca19e3de" y="59.080611"/>
     <use style="fill:#ad494a;" x="98.176609" xlink:href="#m00ca19e3de" y="31.197998"/>
     <use style="fill:#ad494a;" x="104.567446" xlink:href="#m00ca19e3de" y="60.274921"/>
     <use style="fill:#ad494a;" x="110.958284" xlink:href="#m00ca19e3de" y="68.272964"/>
     <use style="fill:#ad494a;" x="117.349121" xlink:href="#m00ca19e3de" y="83.201824"/>
     <use style="fill:#ad494a;" x="123.739959" xlink:href="#m00ca19e3de" y="45.346303"/>
     <use style="fill:#ad494a;" x="130.130796" xlink:href="#m00ca19e3de" y="40.377652"/>
     <use style="fill:#ad494a;" x="136.521634" xlink:href="#m00ca19e3de" y="73.319681"/>
     <use style="fill:#ad494a;" x="142.912471" xlink:href="#m00ca19e3de" y="55.415126"/>
     <use style="fill:#ad494a;" x="149.303309" xlink:href="#m00ca19e3de" y="54.425162"/>
     <use style="fill:#ad494a;" x="155.694146" xlink:href="#m00ca19e3de" y="13.152756"/>
     <use style="fill:#ad494a;" x="162.084984" xlink:href="#m00ca19e3de" y="18.027846"/>
     <use style="fill:#ad494a;" x="168.475821" xlink:href="#m00ca19e3de" y="18.033353"/>
     <use style="fill:#ad494a;" x="174.866659" xlink:href="#m00ca19e3de" y="16.037957"/>
     <use style="fill:#ad494a;" x="181.257496" xlink:href="#m00ca19e3de" y="16.043398"/>
     <use style="fill:#ad494a;" x="187.648334" xlink:href="#m00ca19e3de" y="16.038005"/>
     <use style="fill:#ad494a;" x="194.039171" xlink:href="#m00ca19e3de" y="21.033421"/>
     <use style="fill:#ad494a;" x="200.430009" xlink:href="#m00ca19e3de" y="15.056519"/>
     <use style="fill:#ad494a;" x="206.820846" xlink:href="#m00ca19e3de" y="127.490506"/>
    </g>
   </g>
   <g id="patch_3">
    <path d="M 39.061362 138.16063 
L 39.061362 7.2 
" style="fill:none;stroke:#262626;stroke-linecap:square;stroke-linejoin:miter;stroke-width:0.5;"/>
   </g>
   <g id="patch_4">
    <path d="M 39.061362 138.16063 
L 214.809393 138.16063 
" style="fill:none;stroke:#262626;stroke-linecap:square;stroke-linejoin:miter;stroke-width:0.5;"/>
   </g>
   <g id="legend_1">
    <g id="line2d_16">
     <path d="M 46.261362 60.755696 
L 62.261362 60.755696 
" style="fill:none;stroke:#2a768e;stroke-linecap:round;stroke-width:1.4;"/>
    </g>
    <g id="line2d_17">
     <g>
      <use style="fill:#2a768e;" x="54.261362" xlink:href="#mb55518ee16" y="60.755696"/>
     </g>
    </g>
    <g id="text_15">
     <!-- xavier -->
     <defs>
      <path d="M 26 23.296875 
C 29 27.1875 32.40625 31.59375 35.203125 34.890625 
C 38.5 38.6875 42.296875 40.296875 46.703125 40.390625 
L 46.703125 43 
C 45 42.890625 41.5 42.796875 39.703125 42.796875 
C 37 42.796875 33.90625 42.796875 31.59375 43 
L 31.59375 40.390625 
C 33 40.1875 33.796875 39.1875 33.796875 37.796875 
C 33.796875 36 32.796875 34.890625 32.296875 34.1875 
L 24.90625 24.796875 
L 16.09375 36.296875 
C 15.203125 37.390625 15.203125 37.59375 15.203125 38.09375 
C 15.203125 39.296875 16.203125 40.296875 17.90625 40.390625 
L 17.90625 43 
C 15.5 42.796875 11.203125 42.796875 8.703125 42.796875 
C 6 42.796875 2.796875 42.796875 0.59375 43 
L 0.59375 40.390625 
C 6 40.390625 7.203125 40 9.59375 37 
L 21.09375 22.09375 
C 21.296875 21.890625 21.796875 21.296875 21.796875 21 
C 21.796875 20.59375 13.09375 9.890625 12 8.5 
C 7.5 3.09375 2.796875 2.6875 0.09375 2.59375 
L 0.09375 0 
C 1.796875 0.09375 5.296875 0.1875 7.09375 0.1875 
C 9.09375 0.1875 13.5 0.1875 15.296875 0 
L 15.296875 2.59375 
C 14.703125 2.6875 13.09375 2.890625 13.09375 5.1875 
C 13.09375 7 13.90625 8.09375 14.796875 9.296875 
L 23.09375 19.5 
L 31.796875 8.1875 
C 32.59375 7.09375 33.796875 5.59375 33.796875 4.890625 
C 33.796875 3.5 32.59375 2.6875 31 2.59375 
L 31 0 
C 33.40625 0.1875 37.703125 0.1875 40.203125 0.1875 
C 42.90625 0.1875 46.09375 0.1875 48.296875 0 
L 48.296875 2.59375 
C 43.296875 2.59375 41.796875 2.796875 39.40625 5.890625 
z
" id="CMR17-120"/>
      <path d="M 39.09375 33.953125 
C 40 36.171875 41.59375 40.1875 47.40625 40.390625 
L 47.40625 43 
C 45.5 42.890625 43 42.796875 41.09375 42.796875 
C 39 42.796875 35.703125 42.796875 33.703125 43 
L 33.703125 40.390625 
C 36.203125 40.1875 37.59375 38.984375 37.59375 36.375 
C 37.59375 35.46875 37.59375 35.265625 37 33.859375 
L 26 5.921875 
L 14.09375 36.0625 
C 13.5 37.375 13.5 37.578125 13.5 37.984375 
C 13.5 40.390625 16.796875 40.390625 18.296875 40.390625 
L 18.296875 43 
C 15.90625 42.796875 11.5 42.796875 9 42.796875 
C 6.296875 42.796875 3.203125 42.796875 1 43 
L 1 40.390625 
C 4.796875 40.390625 6.90625 40.390625 8.09375 37.28125 
L 22.59375 0.6875 
C 23.203125 -0.8125 23.296875 -1 24.203125 -1 
C 25.09375 -1 25.203125 -0.8125 25.796875 0.6875 
z
" id="CMR17-118"/>
      <path d="M 15.5 61.890625 
C 15.5 64.09375 13.703125 66 11.40625 66 
C 9.203125 66 7.296875 64.1875 7.296875 61.890625 
C 7.296875 59.6875 9.09375 57.796875 11.40625 57.796875 
C 13.59375 57.796875 15.5 59.59375 15.5 61.890625 
z
M 3.796875 42.890625 
L 3.796875 40.296875 
C 9.40625 40.296875 10.203125 39.6875 10.203125 34.859375 
L 10.203125 6.921875 
C 10.203125 3.09375 9.796875 2.59375 3.40625 2.59375 
L 3.40625 0 
C 5.796875 0.1875 10.09375 0.1875 12.59375 0.1875 
C 15 0.1875 19.09375 0.1875 21.40625 0 
L 21.40625 2.59375 
C 15.5 2.59375 15.296875 3.203125 15.296875 6.8125 
L 15.296875 44 
z
" id="CMR17-105"/>
     </defs>
     <g style="fill:#262626;" transform="translate(68.661362 63.555696)scale(0.08 -0.08)">
      <use transform="scale(0.996264)" xlink:href="#CMR17-120"/>
      <use transform="translate(48.292916 0)scale(0.996264)" xlink:href="#CMR17-97"/>
      <use transform="translate(91.380939 0)scale(0.996264)" xlink:href="#CMR17-118"/>
      <use transform="translate(139.673855 0)scale(0.996264)" xlink:href="#CMR17-105"/>
      <use transform="translate(164.544913 0)scale(0.996264)" xlink:href="#CMR17-101"/>
      <use transform="translate(205.030574 0)scale(0.996264)" xlink:href="#CMR17-114"/>
     </g>
    </g>
    <g id="line2d_18">
     <path d="M 46.261362 71.905442 
L 62.261362 71.905442 
" style="fill:none;stroke:#33a02c;stroke-linecap:round;stroke-width:1.4;"/>
    </g>
    <g id="line2d_19">
     <g>
      <use style="fill:#33a02c;" x="54.261362" xlink:href="#me614a0153e" y="71.905442"/>
     </g>
    </g>
    <g id="text_16">
     <!-- before -->
     <defs>
      <path d="M 15 69 
L 3.09375 67.890625 
L 3.09375 65.296875 
C 9 65.296875 9.90625 64.703125 9.90625 60.046875 
L 9.90625 -0.203125 
L 11.703125 -0.203125 
L 14.59375 6.953125 
C 17.5 2.203125 21.796875 -1 27.59375 -1 
C 37.59375 -1 47.703125 7.859375 47.703125 21.59375 
C 47.703125 34.515625 38.703125 44 28.59375 44 
C 22.40625 44 18 40.671875 15 36.734375 
z
M 15.203125 31.59375 
C 15.203125 33.40625 15.203125 33.703125 16.59375 35.828125 
C 20.5 41.890625 26.09375 42.390625 28 42.390625 
C 31 42.390625 41.296875 40.78125 41.296875 21.6875 
C 41.296875 1.703125 29.5 0.59375 27.09375 0.59375 
C 24 0.59375 19.5 1.796875 16.296875 7.65625 
C 15.203125 9.578125 15.203125 9.78125 15.203125 11.59375 
z
" id="CMR17-98"/>
      <path d="M 15.296875 40.390625 
L 26.703125 40.390625 
L 26.703125 43 
L 15.09375 43 
L 15.09375 55.296875 
C 15.09375 63.6875 19.296875 68.390625 23.59375 68.390625 
C 24.90625 68.390625 26.40625 68.171875 27.40625 67.796875 
C 26.59375 67.59375 24.5 66.890625 24.5 64.390625 
C 24.5 61.796875 26.5 61 27.90625 61 
C 29.296875 61 31.296875 61.796875 31.296875 64.390625 
C 31.296875 68.015625 27.703125 70 23.703125 70 
C 18 70 10.203125 65.796875 10.203125 55.09375 
L 10.203125 43 
L 2.203125 43 
L 2.203125 40.390625 
L 10.203125 40.390625 
L 10.203125 6.890625 
C 10.203125 3.09375 9.796875 2.59375 3.40625 2.59375 
L 3.40625 0 
C 5.796875 0.1875 10.40625 0.1875 13 0.1875 
C 15.90625 0.1875 21 0.1875 23.703125 0 
L 23.703125 2.59375 
C 16.5 2.59375 15.296875 2.59375 15.296875 7.09375 
z
" id="CMR17-102"/>
     </defs>
     <g style="fill:#262626;" transform="translate(68.661362 74.705442)scale(0.08 -0.08)">
      <use transform="scale(0.996264)" xlink:href="#CMR17-98"/>
      <use transform="translate(53.497809 0)scale(0.996264)" xlink:href="#CMR17-101"/>
      <use transform="translate(93.983469 0)scale(0.996264)" xlink:href="#CMR17-102"/>
      <use transform="translate(121.456981 0)scale(0.996264)" xlink:href="#CMR17-111"/>
      <use transform="translate(167.147459 0)scale(0.996264)" xlink:href="#CMR17-114"/>
      <use transform="translate(202.428226 0)scale(0.996264)" xlink:href="#CMR17-101"/>
     </g>
    </g>
    <g id="line2d_20">
     <path d="M 46.261362 83.055188 
L 62.261362 83.055188 
" style="fill:none;stroke:#ad494a;stroke-linecap:round;stroke-width:1.4;"/>
    </g>
    <g id="line2d_21">
     <g>
      <use style="fill:#ad494a;" x="54.261362" xlink:href="#m00ca19e3de" y="83.055188"/>
     </g>
    </g>
    <g id="text_17">
     <!-- after -->
     <defs>
      <path d="M 15.09375 40.390625 
L 29.09375 40.390625 
L 29.09375 43 
L 15.09375 43 
L 15.09375 62 
L 13.296875 62 
C 13.09375 51.4375 9.59375 42.1875 1.09375 41.984375 
L 1.09375 40.390625 
L 9.796875 40.390625 
L 9.796875 12.15625 
C 9.796875 10.234375 9.796875 -1 21.40625 -1 
C 27.296875 -1 30.703125 4.8125 30.703125 12.25 
L 30.703125 17.984375 
L 28.90625 17.984375 
L 28.90625 12.34375 
C 28.90625 5.421875 26.203125 0.796875 22 0.796875 
C 19.09375 0.796875 15.09375 2.796875 15.09375 11.953125 
z
" id="CMR17-116"/>
     </defs>
     <g style="fill:#262626;" transform="translate(68.661362 85.855188)scale(0.08 -0.08)">
      <use transform="scale(0.996264)" xlink:href="#CMR17-97"/>
      <use transform="translate(45.690477 0)scale(0.996264)" xlink:href="#CMR17-102"/>
      <use transform="translate(73.16399 0)scale(0.996264)" xlink:href="#CMR17-116"/>
      <use transform="translate(108.444757 0)scale(0.996264)" xlink:href="#CMR17-101"/>
      <use transform="translate(148.930418 0)scale(0.996264)" xlink:href="#CMR17-114"/>
     </g>
    </g>
   </g>
  </g>
 </g>
 <defs>
  <clipPath id="pbddcede315">
   <rect height="130.96063" width="175.748031" x="39.061362" y="7.2"/>
  </clipPath>
 </defs>
</svg>
